<svg width="850" height="580" xmlns="http://www.w3.org/2000/svg">
 <!-- Created with Method Draw - http://github.com/duopixel/Method-Draw/ -->
 <g>
  <title>background</title>
  <rect fill="#fff" id="canvas_background" height="582" width="852" y="-1" x="-1"/>
  <g display="none" overflow="visible" y="0" x="0" height="100%" width="100%" id="canvasGrid">
   <rect fill="url(#gridpattern)" stroke-width="0" y="0" x="0" height="100%" width="100%"/>
  </g>
 </g>
 <g>
  <title>Layer 1</title>
  <ellipse stroke="#000" ry="144" rx="124" id="svg_1" cy="259" cx="188" stroke-width="1.5" fill="#fff"/>
  <text stroke="#000" transform="matrix(1.051061153411865,0,0,1.371805406978143,-10.148565359413622,-41.63242465138267) " xml:space="preserve" text-anchor="start" font-family="sans-serif" font-size="18" id="svg_2" y="137.29371" x="143" fill-opacity="null" stroke-opacity="null" stroke-width="0" fill="#000000">Dev Server</text>
  <rect id="svg_3" height="35" width="36" y="435" x="67" fill-opacity="null" stroke-opacity="null" stroke-width="1.5" stroke="#000" fill="#fff"/>
  <rect id="svg_5" height="35" width="36" y="436" x="123" fill-opacity="null" stroke-opacity="null" stroke-width="1.5" stroke="#000" fill="#fff"/>
  <rect id="svg_6" height="35" width="36" y="435" x="239" fill-opacity="null" stroke-opacity="null" stroke-width="1.5" stroke="#000" fill="#fff"/>
  <rect id="svg_7" height="35" width="36" y="436" x="179" fill-opacity="null" stroke-opacity="null" stroke-width="1.5" stroke="#000" fill="#fff"/>
  <text xml:space="preserve" text-anchor="start" font-family="sans-serif" font-size="12" id="svg_8" y="456" x="70" fill-opacity="null" stroke-opacity="null" stroke-width="0" stroke="#000" fill="#000000">Dev 1</text>
  <text xml:space="preserve" text-anchor="start" font-family="sans-serif" font-size="12" id="svg_10" y="457" x="242" fill-opacity="null" stroke-opacity="null" stroke-width="0" stroke="#000" fill="#000000">Dev 4</text>
  <text style="cursor: move;" xml:space="preserve" text-anchor="start" font-family="sans-serif" font-size="12" id="svg_11" y="456" x="181" fill-opacity="null" stroke-opacity="null" stroke-width="0" stroke="#000" fill="#000000">Dev 3</text>
  <text style="cursor: move;" xml:space="preserve" text-anchor="start" font-family="sans-serif" font-size="12" id="svg_12" y="458" x="126" fill-opacity="null" stroke-opacity="null" stroke-width="0" stroke="#000" fill="#000000">Dev 2</text>
  <line stroke-linecap="null" stroke-linejoin="null" id="svg_13" y2="393" x2="146" y1="437" x1="88" fill-opacity="null" stroke-opacity="null" stroke-width="1.5" stroke="#000" fill="none"/>
  <line stroke-linecap="null" stroke-linejoin="null" id="svg_15" y2="396" x2="156" y1="435" x1="147" fill-opacity="null" stroke-opacity="null" stroke-width="1.5" stroke="#000" fill="none"/>
  <line stroke-linecap="null" stroke-linejoin="null" id="svg_16" y2="401" x2="196" y1="433" x1="199" fill-opacity="null" stroke-opacity="null" stroke-width="1.5" stroke="#000" fill="none"/>
  <line stroke-linecap="null" stroke-linejoin="null" id="svg_17" y2="397" x2="228" y1="436" x1="262" fill-opacity="null" stroke-opacity="null" stroke-width="1.5" stroke="#000" fill="none"/>
  <text xml:space="preserve" text-anchor="start" font-family="sans-serif" font-size="12" id="svg_18" y="408" x="72" fill-opacity="null" stroke-opacity="null" stroke-width="0" stroke="#000" fill="#000000">Commit</text>
  <rect stroke="#000" id="svg_19" height="399.00001" width="49" y="68.99999" x="10" fill-opacity="null" stroke-opacity="null" stroke-width="1.5" fill="none"/>
  <text font-weight="normal" stroke="#000" transform="rotate(-90 36.42214584350592,261.54223632812506) matrix(1.8659384243832733,0,0,1.298085101371193,-628.9510563829602,228.12112953087706) " xml:space="preserve" text-anchor="start" font-family="sans-serif" font-size="30" id="svg_20" y="36.29736" x="263.50445" fill-opacity="null" stroke-opacity="null" stroke-width="0" fill="#000000">Requirements</text>
  <rect stroke="#000" id="svg_23" height="52" width="132" y="328" x="127" fill-opacity="null" stroke-opacity="null" stroke-width="1.5" fill="none"/>
  <text stroke="#000" transform="matrix(2.5595126152038574,0,0,3.0714285373687744,-251.08153104782104,-478.4999921321869) " xml:space="preserve" text-anchor="start" font-family="sans-serif" font-size="12" id="svg_22" y="275.53488" x="149.88832" fill-opacity="null" stroke-opacity="null" stroke-width="0" fill="#000000">VCS(Git)</text>
  <rect id="svg_26" height="81" width="233" y="213" x="73" fill-opacity="null" stroke-opacity="null" stroke-width="1.5" stroke="#000" fill="none"/>
  <rect id="svg_27" height="69" width="108" y="218" x="77" fill-opacity="null" stroke-opacity="null" stroke-width="1.5" stroke="#000" fill="none"/>
  <rect stroke="#000" id="svg_28" height="71" width="109" y="217" x="191" fill-opacity="null" stroke-opacity="null" stroke-width="1.5" fill="none"/>
  <text stroke="#000" transform="matrix(1.315446181816675,0,0,2.139170475503306,13.091868880515364,-255.1217317902404) " xml:space="preserve" text-anchor="start" font-family="sans-serif" font-size="15" id="svg_30" y="241.74372" x="49.72097" fill-opacity="null" stroke-opacity="null" stroke-width="0" fill="#000000">Unit Testing</text>
  <text stroke="#000" transform="matrix(1.1296673103521808,0,0,2.1896905685396937,-25.447960608548755,-276.1344477614509) " xml:space="preserve" text-anchor="start" font-family="sans-serif" font-size="16" id="svg_31" y="245.88983" x="196.77043" fill-opacity="null" stroke-opacity="null" stroke-width="0" fill="#000000">Compilation</text>
  <rect id="svg_32" height="49" width="164" y="157" x="106" fill-opacity="null" stroke-opacity="null" stroke-width="1.5" stroke="#000" fill="none"/>
  <text stroke="#000" transform="matrix(1.3303714856360565,0,0,2.0758691646977034,-68.45226402713352,-173.59416531820193) " xml:space="preserve" text-anchor="start" font-family="sans-serif" font-size="12" id="svg_33" y="174.51827" x="139.50334" fill-opacity="null" stroke-opacity="null" stroke-width="0" fill="#000000">Build and Compress</text>
  <text stroke="#000" transform="matrix(1.2112960956227212,0,0,1.1476300382281435,-68.73631580488797,6.3954245842428605) " xml:space="preserve" text-anchor="start" font-family="sans-serif" font-size="18" id="svg_34" y="71.80095" x="276.58035" fill-opacity="null" stroke-opacity="null" stroke-width="0" fill="#000000">.tar/.jar</text>
  <path transform="rotate(-24.670652389526367 235.6699676513672,102.94825744628906) " id="svg_37" d="m247.83715,110.20535c0.96716,-1.30044 1.89214,-2.79968 2.70699,-4.14549l-24.41556,-0.61754l-3.34897,5.31817l-10.60962,-0.45677c1.3294,-2.4213 2.78571,-5.26567 3.86543,-7.40207l-3.84077,-7.18214l11.32023,0l2.30331,4.48745l24.92769,0l-3.09209,-4.47741c0.95426,-1.411 2.36651,-3.29401 3.13261,-4.2813l8.3836,11.41149l-8.40267,11.58852l-2.93016,-4.24291l0,0z" fill-opacity="null" stroke-opacity="null" stroke-width="1.5" stroke="#000" fill="none"/>
  <path stroke="#000" transform="rotate(32.91211700439453 369.26196289062506,119.71775817871094) " id="svg_39" d="m382.65951,125.94236c1.06496,-1.11542 2.08348,-2.40136 2.98073,-3.5557l-26.88455,-0.52968l-3.68763,4.56153l-11.6825,-0.39178c1.46383,-2.07681 3.06741,-4.5165 4.25631,-6.34894l-4.22917,-6.16031l12.46497,0l2.53623,3.849l27.44847,0l-3.40477,-3.84039c1.05076,-1.21025 2.60582,-2.82536 3.44939,-3.67218l9.23138,9.78793l-9.25237,9.93977l-3.22647,-3.63925l0,0z" fill-opacity="null" stroke-opacity="null" stroke-width="1.5" fill="none"/>
  <ellipse stroke="#000" ry="144" rx="124" id="svg_161" cy="265" cx="445" stroke-width="1.5" fill="#fff"/>
  <text style="cursor: move;" stroke="#000" transform="matrix(1.051061153411865,0,0,1.371805406978143,-10.148565359413622,-41.63242465138267) " xml:space="preserve" text-anchor="start" font-family="sans-serif" font-size="18" id="svg_162" y="141.6675" x="387.51479" fill-opacity="null" stroke-opacity="null" stroke-width="0" fill="#000000">Test Server</text>
  <rect id="svg_163" height="35" width="36" y="441" x="324" fill-opacity="null" stroke-opacity="null" stroke-width="1.5" stroke="#000" fill="#fff"/>
  <rect id="svg_164" height="35" width="36" y="442" x="380" fill-opacity="null" stroke-opacity="null" stroke-width="1.5" stroke="#000" fill="#fff"/>
  <rect id="svg_165" height="35" width="36" y="442" x="496" fill-opacity="null" stroke-opacity="null" stroke-width="1.5" stroke="#000" fill="#fff"/>
  <rect id="svg_166" height="35" width="36" y="442" x="436" fill-opacity="null" stroke-opacity="null" stroke-width="1.5" stroke="#000" fill="#fff"/>
  <text style="cursor: move;" xml:space="preserve" text-anchor="start" font-family="sans-serif" font-size="12" id="svg_167" y="462" x="327" fill-opacity="null" stroke-opacity="null" stroke-width="0" stroke="#000" fill="#000000">T.E 1</text>
  <text style="cursor: move;" xml:space="preserve" text-anchor="start" font-family="sans-serif" font-size="12" id="svg_168" y="463" x="499" fill-opacity="null" stroke-opacity="null" stroke-width="0" stroke="#000" fill="#000000">T.E 4</text>
  <text style="cursor: move;" xml:space="preserve" text-anchor="start" font-family="sans-serif" font-size="12" id="svg_169" y="462" x="438" fill-opacity="null" stroke-opacity="null" stroke-width="0" stroke="#000" fill="#000000">T.E 3</text>
  <text style="cursor: move;" xml:space="preserve" text-anchor="start" font-family="sans-serif" font-size="12" id="svg_170" y="464" x="383" fill-opacity="null" stroke-opacity="null" stroke-width="0" stroke="#000" fill="#000000">T.E 2</text>
  <line stroke-linecap="null" stroke-linejoin="null" id="svg_171" y2="399" x2="403" y1="443" x1="345" fill-opacity="null" stroke-opacity="null" stroke-width="1.5" stroke="#000" fill="none"/>
  <line stroke-linecap="null" stroke-linejoin="null" id="svg_172" y2="402" x2="413" y1="441" x1="404" fill-opacity="null" stroke-opacity="null" stroke-width="1.5" stroke="#000" fill="none"/>
  <line stroke-linecap="null" stroke-linejoin="null" id="svg_173" y2="407" x2="453" y1="439" x1="456" fill-opacity="null" stroke-opacity="null" stroke-width="1.5" stroke="#000" fill="none"/>
  <line stroke-linecap="null" stroke-linejoin="null" id="svg_174" y2="403" x2="485" y1="442" x1="519" fill-opacity="null" stroke-opacity="null" stroke-width="1.5" stroke="#000" fill="none"/>
  <text xml:space="preserve" text-anchor="start" font-family="sans-serif" font-size="12" id="svg_175" y="409" x="307" fill-opacity="null" stroke-opacity="null" stroke-width="0" stroke="#000" fill="#000000">Raise Defect</text>
  <rect stroke="#000" id="svg_176" height="52" width="132" y="334" x="381" fill-opacity="null" stroke-opacity="null" stroke-width="1.5" fill="none"/>
  <text stroke="#000" transform="matrix(1.7124589461387814,0,0,2.471439461890128,-40.059471460019836,-309.29827438026007) " xml:space="preserve" text-anchor="start" font-family="sans-serif" font-size="16" id="svg_177" y="277.48837" x="250.29806" fill-opacity="null" stroke-opacity="null" stroke-width="0" fill="#000000">Test Repo</text>
  <rect id="svg_178" height="81" width="233" y="219" x="330" fill-opacity="null" stroke-opacity="null" stroke-width="1.5" stroke="#000" fill="none"/>
  <rect stroke="#000" id="svg_179" height="38" width="209.99999" y="224" x="343" fill-opacity="null" stroke-opacity="null" stroke-width="1.5" fill="none"/>
  <rect stroke="#000" id="svg_180" height="27" width="210.99999" y="267" x="342" fill-opacity="null" stroke-opacity="null" stroke-width="1.5" fill="none"/>
  <text stroke="#000" transform="matrix(1.0119023293322185,0,0,2.0893738351949396,160.09301617516726,-287.1095366443341) " xml:space="preserve" text-anchor="start" font-family="sans-serif" font-size="15" id="svg_181" y="258.89436" x="217.18631" fill-opacity="null" stroke-opacity="null" stroke-width="0" fill="#000000">Regression Testing</text>
  <text stroke="#000" transform="matrix(1.048340330818228,0,0,1.0597020981943428,-24.095430976943206,32.26573478212477) " xml:space="preserve" text-anchor="start" font-family="sans-serif" font-size="16" id="svg_182" y="239.54229" x="367.95465" fill-opacity="null" stroke-opacity="null" stroke-width="0" fill="#000000">Execute Test Cases</text>
  <rect id="svg_183" height="49" width="164" y="163" x="363" fill-opacity="null" stroke-opacity="null" stroke-width="1.5" stroke="#000" fill="none"/>
  <text stroke="#000" transform="matrix(1.556937716173137,0,0,3.0070195513285407,-148.85799545116404,-334.8340003767897) " xml:space="preserve" text-anchor="start" font-family="sans-serif" font-size="12" id="svg_184" y="176.9269" x="343.95751" fill-opacity="null" stroke-opacity="null" stroke-width="0" fill="#000000">Bug Tracking</text>
  <text stroke="#000" transform="matrix(1.3800098896026611,0,0,1.4413793087005615,-145.92379760742188,-50.724137742072344) " xml:space="preserve" text-anchor="start" font-family="sans-serif" font-size="12" id="svg_185" y="112" x="384" fill-opacity="null" stroke-opacity="null" stroke-width="0" fill="#000000">Install</text>
  <path stroke="#000" id="svg_188" d="m313.9142,334.97513c2.0387,0.00216 3.98631,0.29817 5.83079,0.79267l-1.45977,2.11711l10.362,0l-2.59116,-3.76303l-2.58919,-3.7619l-1.36297,1.98228c-2.55442,-0.78313 -5.30818,-1.22141 -8.18785,-1.22141c-13.2549,0 -23.99842,9.00958 -23.99842,20.12449c0,4.61305 1.87104,8.85144 4.98485,12.24725l3.64908,-2.34943c-2.51837,-2.74428 -4.03255,-6.16876 -4.04076,-9.89671c0.01834,-8.98626 8.68834,-16.25756 19.40339,-16.27134l0,0zm19.0161,4.02722l-3.64908,2.35055c2.51773,2.74324 4.03192,6.16556 4.03885,9.89462c-0.01834,8.98618 -8.68834,16.25644 -19.40401,16.27125c-1.89888,-0.00206 -3.71552,-0.26097 -5.44737,-0.69397l1.37369,-1.99189l-10.36196,0l2.58925,3.76094l2.59112,3.76613l1.44459,-2.10219c2.45001,0.71521 5.07212,1.11422 7.81068,1.11526c13.25682,-0.00207 23.99849,-9.01166 24.0016,-20.12658c-0.00311,-4.61304 -1.87548,-8.85039 -4.98736,-12.24412l0,0z" fill-opacity="null" stroke-opacity="null" stroke-width="1.5" fill="#fff"/>
  <path stroke="#000" transform="rotate(-25.89307975769043 534.6804809570312,123.93119812011716) " id="svg_190" d="m550.45141,132.31333c1.25362,-1.50204 2.45257,-3.2337 3.50876,-4.78815l-31.64713,-0.71327l-4.34089,6.14261l-13.75205,-0.52758c1.72315,-2.79666 3.61079,-6.08197 5.01032,-8.54957l-4.97836,-8.29555l14.67313,0l2.98552,5.18312l32.31094,0l-4.00792,-5.17152c1.2369,-1.62974 3.06744,-3.80466 4.06044,-4.94501l10.86671,13.18055l-10.89142,13.38502l-3.79804,-4.90067l0,0z" fill-opacity="null" stroke-opacity="null" stroke-width="1.5" fill="none"/>
  <text stroke="#000" transform="matrix(0.9850816130638121,0,0,1.5,8.563150350004433,-42.5) " xml:space="preserve" text-anchor="start" font-family="sans-serif" font-size="12" id="svg_191" y="96.66667" x="564.84856" fill-opacity="null" stroke-opacity="null" stroke-width="0" fill="#000000">User Acceptance Testing</text>
  <path stroke="#000" transform="rotate(48.495521545410156 671.2486572265627,133.83122253417966) " id="svg_192" d="m682.78001,139.98043c0.91662,-1.10192 1.79326,-2.37228 2.56552,-3.51265l-23.13963,-0.52326l-3.17396,4.5063l-10.05517,-0.38704c1.25993,-2.05166 2.64013,-4.46181 3.66342,-6.27207l-3.64006,-6.08572l10.72864,0l2.18294,3.8024l23.62499,0l-2.9305,-3.79389c0.90439,-1.1956 2.24284,-2.79115 2.9689,-3.62772l7.94548,9.66942l-7.96355,9.81942l-2.77704,-3.59519l0,0z" fill-opacity="null" stroke-opacity="null" stroke-width="1.5" fill="none"/>
  <text stroke="#000" transform="matrix(1.0917781591415405,0,0,1.2142857313156128,-43.04395663738251,-24.42857336997986) " xml:space="preserve" text-anchor="start" font-family="sans-serif" font-size="12" id="svg_193" y="111" x="470" fill-opacity="null" stroke-opacity="null" stroke-width="0" fill="#000000">Stable Build</text>
  <text stroke="#000" transform="matrix(1.2794759273529053,0,0,1.2142857313156128,-177.0086986757815,-30.857145309448242) " xml:space="preserve" text-anchor="start" font-family="sans-serif" font-size="12" id="svg_194" y="145.11765" x="622.35495" fill-opacity="null" stroke-opacity="null" stroke-width="0" fill="#000000">Deploy</text>
  <rect stroke="#000" id="svg_196" height="220" width="201" y="166" x="631" fill-opacity="null" stroke-opacity="null" stroke-width="1.5" fill="none"/>
  <text stroke="#000" transform="matrix(1.3894939422607422,0,0,2.00111722946167,-254.33954429626465,-179.01227459311485) " xml:space="preserve" text-anchor="start" font-family="sans-serif" font-size="12" id="svg_197" y="186.00223" x="656.59843" fill-opacity="null" stroke-opacity="null" stroke-width="0" fill="#000000">Production Server</text>
  <rect id="svg_200" height="35" width="175" y="255" x="640" fill-opacity="null" stroke-opacity="null" stroke-width="1.5" stroke="#000" fill="none"/>
  <text stroke="#000" transform="matrix(1.1425179237660075,0,0,1.7371427529198797,-103.73530881269592,-198.76568594115162) " xml:space="preserve" text-anchor="start" font-family="sans-serif" font-size="12" id="svg_201" y="275" x="660" fill-opacity="null" stroke-opacity="null" stroke-width="0" fill="#000000">Reports and Complaints</text>
  <rect stroke="#000" id="svg_202" height="35" width="175" y="345" x="640" fill-opacity="null" stroke-opacity="null" stroke-width="1.5" fill="none"/>
  <text stroke="#000" transform="matrix(1.456575632095337,0,0,1.6428571939468384,-295.8610095977783,-197.35715854167938) " xml:space="preserve" text-anchor="start" font-family="sans-serif" font-size="12" id="svg_203" y="341.73913" x="649.68654" fill-opacity="null" stroke-opacity="null" stroke-width="0" fill="#000000">Backups and Logs</text>
  <rect stroke="#000" id="svg_204" height="35" width="175" y="210" x="640" fill-opacity="null" stroke-opacity="null" stroke-width="1.5" fill="none"/>
  <text stroke="#000" transform="matrix(1.3797388213830715,0,0,1.3571428060531616,-249.35734867711676,-126.07141053676605) " xml:space="preserve" text-anchor="start" font-family="sans-serif" font-size="12" id="svg_205" y="265.26315" x="664.24775" fill-opacity="null" stroke-opacity="null" stroke-width="0" fill="#000000">Load Balancer</text>
  <rect stroke="#000" id="svg_198" height="35" width="175" y="301" x="640" fill-opacity="null" stroke-opacity="null" stroke-width="1.5" fill="none"/>
  <text stroke="#000" transform="matrix(1.1886145452394032,0,0,1.8827082332919791,-110.79032244933333,-128.41530440124475) " xml:space="preserve" text-anchor="start" font-family="sans-serif" font-size="12" id="svg_199" y="242.16212" x="643.56098" fill-opacity="null" stroke-opacity="null" stroke-width="0" fill="#000000">Tracking and Analytics</text>
  <path id="svg_212" d="m694,385c-148,163 -297,159 -297,159c5,2 -165,6 -165,6c-49,-4 -109,-28 -109,-28c0,0 -66,-36 -66,-36c-5,-4 -16,-17 -16,-17" fill-opacity="null" stroke-opacity="null" stroke="#000" fill="none"/>
  <path d="m34,488c0,0 1,-1 1,-2c0,-1 0,-2 0,-2c0,-1 1,-2 1,-3c0,-1 0,-2 1,-3c0,0 0,-2 0,-2c0,-1 1,-1 1,-2c0,0 0,-1 1,-2c0,0 0,-1 0,-2c0,0 1,-1 1,-1c1,-1 1,-1 1,-2c0,0 1,-1 1,-1c1,0 2,0 3,0c0,0 2.07612,0.61731 3,1c1.30656,0.5412 2,1 2,1c1,1 2,1 3,1c0,0 1,1 2,1c0,0 0.07612,-0.38269 1,0c1.30656,0.5412 2.07612,0.61731 3,1c1.30656,0.5412 2,1 2,1c0,0 1.07612,0.61731 2,1c1.30656,0.5412 2,1 2,1c2,1 2,1 3,1c0,0 1,0 1,1l1,0l1,0" id="svg_213" fill-opacity="null" stroke-opacity="null" stroke-width="null" stroke="#000" fill="none"/>
  <text stroke="#000" transform="matrix(0.9375667755326941,0,0,1.8399665511282635,9.640405132904952,-445.518066964312) " xml:space="preserve" text-anchor="start" font-family="sans-serif" font-size="12" id="svg_214" y="536" x="223" fill-opacity="null" stroke-opacity="null" stroke-width="0" fill="#000000">Add or modify Requirements</text>
  <ellipse transform="matrix(0.9257307777850485,0,0,0.978723406791687,85.02768610920248,9.297871232032776) " stroke="#000" ry="22.5" rx="25" id="svg_215" cy="497.28261" cx="673.63807" fill-opacity="null" stroke-opacity="null" stroke-width="null" fill="none"/>
  <text style="cursor: move;" stroke="#000" transform="matrix(0.6067588329315186,0,0,1,285.886328458786,0) " xml:space="preserve" text-anchor="start" font-family="sans-serif" font-size="12" id="svg_216" y="499" x="667.02025" fill-opacity="null" stroke-opacity="null" stroke-width="0" fill="#000000">End User 8</text>
  <ellipse transform="matrix(0.9257307777850485,0,0,0.978723406791687,85.02768610920248,9.297871232032776) " stroke="#000" ry="22.5" rx="25" id="svg_227" cy="416.56522" cx="788.14221" fill-opacity="null" stroke-opacity="null" stroke-width="null" fill="none"/>
  <text style="cursor: move;" stroke="#000" transform="matrix(0.6067588329315186,0,0,1,285.886328458786,0) " xml:space="preserve" text-anchor="start" font-family="sans-serif" font-size="12" id="svg_228" y="420" x="843.36709" fill-opacity="null" stroke-opacity="null" stroke-width="0" fill="#000000">End User 3</text>
  <ellipse transform="matrix(0.9257307777850485,0,0,0.978723406791687,85.02768610920248,9.297871232032776) " stroke="#000" ry="22.5" rx="25" id="svg_229" cy="470.71739" cx="800.02471" fill-opacity="null" stroke-opacity="null" stroke-width="null" fill="none"/>
  <text style="cursor: move;" stroke="#000" transform="matrix(0.6067588329315186,0,0,1,285.886328458786,0) " xml:space="preserve" text-anchor="start" font-family="sans-serif" font-size="12" id="svg_230" y="473" x="859.8481" fill-opacity="null" stroke-opacity="null" stroke-width="0" fill="#000000">End User 4</text>
  <ellipse transform="matrix(0.9257307777850485,0,0,0.978723406791687,85.02768610920248,9.297871232032776) " stroke="#000" ry="22.5" rx="25" id="svg_231" cy="523.84783" cx="777.33993" fill-opacity="null" stroke-opacity="null" stroke-width="null" fill="none"/>
  <text style="cursor: move;" stroke="#000" transform="matrix(0.6067588329315186,0,0,1,285.886328458786,0) " xml:space="preserve" text-anchor="start" font-family="sans-serif" font-size="12" id="svg_232" y="525" x="825.23797" fill-opacity="null" stroke-opacity="null" stroke-width="0" fill="#000000">End User 5</text>
  <ellipse transform="matrix(0.9257307777850485,0,0,0.978723406791687,85.02768610920248,9.297871232032776) " stroke="#000" ry="22.5" rx="25" id="svg_233" cy="546.32609" cx="727.64946" fill-opacity="null" stroke-opacity="null" stroke-width="null" fill="none"/>
  <text style="cursor: move;" stroke="#000" transform="matrix(0.6067588329315186,0,0,1,285.886328458786,0) " xml:space="preserve" text-anchor="start" font-family="sans-serif" font-size="12" id="svg_234" y="547" x="749.42532" fill-opacity="null" stroke-opacity="null" stroke-width="0" fill="#000000">End User 6</text>
  <ellipse transform="matrix(0.9257307777850485,0,0,0.978723406791687,85.02768610920248,9.297871232032776) " stroke="#000" ry="22.5" rx="25" id="svg_235" cy="431.8913" cx="677.95898" fill-opacity="null" stroke-opacity="null" stroke-width="null" fill="none"/>
  <text stroke="#000" transform="matrix(0.6067588329315186,0,0,1,285.886328458786,0) " xml:space="preserve" text-anchor="start" font-family="sans-serif" font-size="12" id="svg_236" y="437" x="673.61266" fill-opacity="null" stroke-opacity="null" stroke-width="0" fill="#000000">End User 1</text>
  <ellipse transform="matrix(0.9257307777850485,0,0,0.978723406791687,85.02768610920248,9.297871232032776) " stroke="#000" ry="22.5" rx="25" id="svg_237" cy="471.73913" cx="728.72968" fill-opacity="null" stroke-opacity="null" stroke-width="null" fill="none"/>
  <text style="cursor: move;" stroke="#000" transform="matrix(0.6067588329315186,0,0,1,285.886328458786,0) " xml:space="preserve" text-anchor="start" font-family="sans-serif" font-size="12" id="svg_238" y="474" x="751.07342" fill-opacity="null" stroke-opacity="null" stroke-width="0" fill="#000000">End User 2</text>
  <ellipse transform="matrix(0.9257307777850485,0,0,0.978723406791687,85.02768610920248,9.297871232032776) " stroke="#000" ry="22.5" rx="25" id="svg_239" cy="544.28261" cx="671.47762" fill-opacity="null" stroke-opacity="null" stroke-width="null" fill="none"/>
  <text style="cursor: move;" stroke="#000" transform="matrix(0.6067588329315186,0,0,1,285.886328458786,0) " xml:space="preserve" text-anchor="start" font-family="sans-serif" font-size="12" id="svg_240" y="545" x="663.72405" fill-opacity="null" stroke-opacity="null" stroke-width="0" fill="#000000">End User 7</text>
  <line stroke-linecap="null" stroke-linejoin="null" id="svg_241" y2="386" x2="760" y1="476" x1="723" fill-opacity="null" stroke-opacity="null" stroke-width="null" stroke="#000" fill="none"/>
  <line stroke-linecap="null" stroke-linejoin="null" id="svg_242" y2="384" x2="715" y1="411" x1="716" fill-opacity="null" stroke-opacity="null" stroke-width="null" stroke="#000" fill="none"/>
  <line stroke-linecap="null" stroke-linejoin="null" id="svg_243" y2="386" x2="771" y1="452" x1="766" fill-opacity="null" stroke-opacity="null" stroke-width="null" stroke="#000" fill="none"/>
  <line stroke-linecap="null" stroke-linejoin="null" id="svg_244" y2="382" x2="790" y1="398" x1="805" fill-opacity="null" stroke-opacity="null" stroke-width="null" stroke="#000" fill="none"/>
  <line stroke-linecap="null" stroke-linejoin="null" id="svg_246" y2="386" x2="772" y1="504" x1="801" fill-opacity="null" stroke-opacity="null" stroke-width="null" stroke="#000" fill="none"/>
  <line stroke-linecap="null" stroke-linejoin="null" id="svg_248" y2="502" x2="669" y1="532" x1="688" fill-opacity="null" stroke-opacity="null" stroke-width="null" stroke="#000" fill="none"/>
  <line stroke-linecap="null" stroke-linejoin="null" id="svg_249" y2="386" x2="677" y1="503" x1="669" fill-opacity="null" stroke-opacity="null" stroke-width="null" stroke="#000" fill="none"/>
  <line stroke-linecap="null" stroke-linejoin="null" id="svg_250" y2="460" x2="717" y1="522" x1="758" fill-opacity="null" stroke-opacity="null" stroke-width="null" stroke="#000" fill="none"/>
  <line stroke-linecap="null" stroke-linejoin="null" id="svg_251" y2="460" x2="685" y1="460" x1="718" fill-opacity="null" stroke-opacity="null" stroke-width="null" stroke="#000" fill="none"/>
  <line stroke-linecap="null" stroke-linejoin="null" id="svg_252" y2="462" x2="684" y1="386" x1="685" fill-opacity="null" stroke-opacity="null" stroke-width="null" stroke="#000" fill="none"/>
  <line stroke="#000" stroke-linecap="null" stroke-linejoin="null" id="svg_253" y2="384" x2="835" y1="461" x1="846" fill-opacity="null" stroke-opacity="null" stroke-width="null" fill="none"/>
  <path id="svg_254" d="m97.64878,379.59748c1.02889,-0.62195 2.01292,-1.33897 2.87977,-1.98262l-25.97401,-0.29534l-3.56274,2.54346l-11.28683,-0.21845c1.41425,-1.15801 2.96352,-2.51835 4.11216,-3.54011l-4.08593,-3.43493l12.0428,0l2.45033,2.14617l26.51882,0l-3.28945,-2.14136c1.01517,-0.67482 2.51756,-1.57539 3.33256,-2.04757l8.91872,5.45765l-8.93901,5.54232l-3.1172,-2.02921l0,0z" fill-opacity="null" stroke-opacity="null" stroke-width="null" stroke="#000" fill="none"/>
  <text stroke="#000" transform="matrix(1.7505290224599421,0,0,2.071098980002645,3.119987239409518,-46.23245883935721) " xml:space="preserve" text-anchor="start" font-family="sans-serif" font-size="23" id="svg_256" y="47.86268" x="129.85386" fill-opacity="null" stroke-opacity="null" stroke-width="0" fill="#000000">One Release Cycle</text>
  <line stroke-linecap="null" stroke-linejoin="null" id="svg_257" y2="67" x2="849" y1="68" x1="57" fill-opacity="null" stroke-opacity="null" stroke-width="null" stroke="#000" fill="none"/>
 </g>
</svg>